<svg id="svg2" xmlns="http://www.w3.org/2000/svg" viewBox="0 0 240 240" width="2500" height="2500">
	<style>
		.st1 {
		fill: #dab6b6
		}
		.st2 {
		fill: #c28989
		}
		.st3 {
		fill: url(#path2991_1_)
		}
	</style>

	<path id="path2993" class="st1" d="M98 175c-3.9 0-3.2-1.5-4.6-5.2L82 132.2 152.8 88l8.3 2.2-6.9 18.8L98 175z" />
	<path id="path2989" class="st2" d="M98 175c3 0 4.3-1.4 6-3 2.6-2.5 36-35 36-35l-20.5-5-19 12-2.5 30v1z" />
	<linearGradient id="path2991_1_" gradientUnits="userSpaceOnUse" x1="128.991" y1="118.245" x2="153.991" y2="78.245" gradientTransform="matrix(1 0 0 -1 0 242)">
		<stop offset="0" stop-color="#b22222" />
		<stop offset="1" stop-color="#b02727" />
	</linearGradient>
	<path id="path2991" class="st3" d="M100 144.4l48.4 35.7c5.5 3 9.5 1.5 10.9-5.1L179 82.2c2-8.1-3.1-11.7-8.4-9.3L55 117.5c-7.9 3.2-7.8 7.6-1.4 9.5l29.7 9.3L152 93c3.2-2 6.2-.9 3.8 1.3L100 144.4z" />
</svg>